#!OML:ASF E:\id_vita\Project 1\Capture day 1\Session 1\Female.ASF
:FULLY-SPECIFIED
:DEGREES
1059
root 19.2725 14.5842 -4.85447 -18.3563 -84.1527 69.3646
lowerback 12.7583 -1.35847 -3.26856
upperback 4.82813 -2.27284 1.91543
thorax -1.87108 -1.23404 4.16426
lowerneck -9.29289 0.0519989 -2.74632
upperneck -23.3649 0.0692302 6.14169
head -5.567 -0.713958 2.49363
rclavicle 1.45113e-014 -4.67144e-015
rhumerus -4.15436 26.1824 -93.0676
rradius 103.134
rwrist -25.4576
rhand -35.0046 -13.4112
rfingers 7.12502
rthumb -8.1492 -43.234
lclavicle 1.45113e-014 -4.67144e-015
lhumerus 57.6592 -29.9693 76.165
lradius 39.823
lwrist 27.8295
lhand 5.41561 50.3013
lfingers 7.12502
lthumb 30.7663 77.747
rfemur -98.6981 -4.76345 60.2184
rtibia 38.3196
rfoot 1.2146 -10.6768
rtoes 16.6727
lfemur -66.8603 3.07236 -34.5821
ltibia 70.1664
lfoot -27.1726 13.2227
ltoes -20.6833
1060
root 19.3104 14.62 -4.84576 -17.8733 -83.8382 67.3665
lowerback 14.1065 -1.38375 -3.3149
upperback 5.20261 -2.37183 1.92418
thorax -2.19235 -1.29307 4.26147
lowerneck -9.26084 -0.0294527 -2.94704
upperneck -23.2973 0.0364534 6.5528
head -5.5441 -0.735454 2.65969
rclavicle 4.87022e-014 8.26944e-014
rhumerus -4.41771 26.0869 -93.0816
rradius 103.163
rwrist -25.3345
rhand -35.2652 -12.9536
rfingers 7.12502
rthumb -8.40071 -42.7665
lclavicle 4.87022e-014 8.26944e-014
lhumerus 57.5692 -30.1754 76.2099
lradius 39.9105
lwrist 27.801
lhand 5.96937 49.9404
lfingers 7.12502
lthumb 31.2941 77.2853
rfemur -97.4656 -6.01714 59.782
rtibia 37.8409
rfoot 1.45626 -10.8525
rtoes 17.033
lfemur -65.2745 2.86478 -34.3917
ltibia 70.2274
lfoot -27.1294 13.6453
ltoes -20.2616
1061
root 19.3997 14.5679 -4.84972 -14.4274 -83.8384 64.8248
lowerback 13.2138 -1.47119 -3.32623
upperback 4.81131 -2.43685 2.03369
thorax -2.11059 -1.31118 4.36388
lowerneck -9.51723 -0.0992065 -3.22643
upperneck -22.8472 0.0234308 6.97432
head -5.35368 -0.722661 2.83211
rclavicle -1.35174e-014 1.17283e-014
rhumerus -4.85801 26.113 -93.297
rradius 103.186
rwrist -25.1911
rhand -35.3204 -12.4793
rfingers 7.12502
rthumb -8.454 -42.2901
lclavicle -1.35174e-014 1.17283e-014
lhumerus 57.2078 -30.3043 76.2709
lradius 40.1015
lwrist 27.9191
lhand 5.93429 49.9126
lfingers 7.12502
lthumb 31.2607 77.2641
rfemur -98.2764 -5.0703 59.8497
rtibia 37.3622
rfoot 2.00872 -10.8777
rtoes 17.4473
lfemur -66.9785 2.29132 -34.1499
ltibia 70.703
lfoot -26.7451 13.8018
ltoes -19.5581
1062
root 19.4376 14.5678 -4.83308 -13.6171 -84.2716 63.6604
lowerback 12.7879 -1.36751 -3.16205
upperback 5.03323 -2.27986 2.01209
thorax -1.67192 -1.24986 4.20241
lowerneck -9.78037 -0.21085 -3.27077
upperneck -22.547 -0.0982478 7.19599
head -5.20743 -0.779312 2.90463
rclavicle 5.30755e-014 3.19049e-014
rhumerus -5.01987 25.8434 -93.4145
rradius 103.244
rwrist -24.4978
rhand -34.6003 -13.0605
rfingers 7.12502
rthumb -7.75903 -42.8982
lclavicle 5.30755e-014 3.19049e-014
lhumerus 57.1743 -30.3642 76.3515
lradius 40.116
lwrist 27.8003
lhand 5.7043 49.9511
lfingers 7.12502
lthumb 31.0415 77.3446
rfemur -97.6775 -4.98079 59.9808
rtibia 36.9415
rfoot 2.22377 -10.716
rtoes 17.8374
lfemur -66.8827 2.27972 -33.8142
ltibia 70.9383
lfoot -26.7785 14.2663
ltoes -18.9222
1063
root 19.4824 14.5694 -4.81937 -12.295 -84.1031 61.8704
lowerback 12.797 -1.41779 -2.97236
upperback 5.34473 -2.33928 1.92797
thorax -1.35729 -1.29378 4.00679
lowerneck -10.3944 -0.31802 -3.17767
upperneck -22.3094 -0.235975 7.41512
head -5.02671 -0.860633 2.95312
rclavicle -4.69132e-014 1.5704e-014
rhumerus -4.89041 25.7408 -93.4853
rradius 103.302
rwrist -24.5787
rhand -34.8694 -12.6447
rfingers 7.12502
rthumb -8.01874 -42.4726
lclavicle -4.69132e-014 1.5704e-014
lhumerus 57.5868 -30.4484 76.2364
lradius 40.0114
lwrist 27.7842
lhand 5.34623 49.9147
lfingers 7.12502
lthumb 30.7002 77.3729
rfemur -97.3786 -5.38482 59.951
rtibia 36.5217
rfoot 2.55778 -10.7067
rtoes 17.808
lfemur -66.6084 1.86057 -33.6251
ltibia 71.2023
lfoot -26.779 14.6329
ltoes -18.6098
1064
root 19.5406 14.5625 -4.8133 -11.361 -84.0495 60.6243
lowerback 12.8857 -1.40106 -2.99586
upperback 5.22487 -2.31753 1.9297
thorax -1.53156 -1.27578 4.02583
lowerneck -9.65276 -0.417793 -3.35376
upperneck -22.3915 -0.292354 7.72031
head -5.15939 -0.890737 3.08594
rclavicle 3.65764e-014 9.0447e-015
rhumerus -5.60176 25.6314 -93.7232
rradius 103.427
rwrist -24.6835
rhand -35.3191 -11.9488
rfingers 7.12502
rthumb -8.45275 -41.7596
lclavicle 3.65764e-014 9.0447e-015
lhumerus 57.0612 -30.7012 76.8033
lradius 39.8995
lwrist 27.7652
lhand 5.50178 50.1028
lfingers 7.12502
lthumb 30.8485 77.533
rfemur -97.1606 -5.51664 59.923
rtibia 36.1008
rfoot 2.97076 -10.5808
rtoes 17.9926
lfemur -66.6233 1.55195 -33.4528
ltibia 71.4005
lfoot -26.5672 15.0194
ltoes -18.314
1065
root 19.5952 14.5675 -4.80466 -11.7124 -84.0254 60.2729
lowerback 13.448 -1.35146 -3.14566
upperback 5.25889 -2.28991 1.94133
thorax -1.79409 -1.26137 4.14192
lowerneck -9.29753 -0.504024 -3.5093
upperneck -22.3125 -0.350868 7.98283
head -5.18174 -0.916249 3.19678
rclavicle -9.74045e-015 -3.54831e-014
rhumerus -6.09796 25.4985 -93.795
rradius 103.56
rwrist -24.6846
rhand -35.3758 -11.7099
rfingers 7.12502
rthumb -8.50748 -41.5186
lclavicle -9.74045e-015 -3.54831e-014
lhumerus 56.6294 -30.8238 77.2337
lradius 39.8634
lwrist 27.7498
lhand 5.89046 50.3305
lfingers 7.12502
lthumb 31.2189 77.69
rfemur -96.5924 -5.90585 59.6903
rtibia 35.7407
rfoot 3.33293 -10.5075
rtoes 18.8577
lfemur -66.1259 1.34607 -33.3306
ltibia 71.4994
lfoot -26.3436 15.4544
ltoes -18.0441
